<mxfile host="app.diagrams.net" agent="Mozilla/5.0 (Windows NT 10.0; Win64; x64) AppleWebKit/537.36 (KHTML, like Gecko) Chrome/127.0.0.0 Safari/537.36" version="24.7.16">
  <diagram name="第 1 页" id="ZnO_zt4kVgX9BatXzFn4">
    <mxGraphModel dx="1500" dy="861" grid="1" gridSize="10" guides="1" tooltips="1" connect="1" arrows="1" fold="1" page="1" pageScale="1" pageWidth="827" pageHeight="1169" math="0" shadow="0">
      <root>
        <mxCell id="0" />
        <mxCell id="1" parent="0" />
        <mxCell id="IemWT1njiil_uN7K83db-2" value="&lt;h2&gt;&lt;br&gt;&lt;/h2&gt;" style="shape=singleArrow;direction=south;whiteSpace=wrap;html=1;arrowWidth=0.6;arrowSize=0.57;" vertex="1" parent="1">
          <mxGeometry x="280" y="190" width="60" height="110" as="geometry" />
        </mxCell>
        <mxCell id="IemWT1njiil_uN7K83db-3" value="&lt;pre&gt;&lt;font style=&quot;font-size: 18px;&quot; face=&quot;Helvetica&quot;&gt;流量&lt;/font&gt;&lt;/pre&gt;" style="text;strokeColor=none;align=center;fillColor=none;html=1;verticalAlign=middle;whiteSpace=wrap;rounded=0;rotation=-90;" vertex="1" parent="1">
          <mxGeometry x="280" y="230" width="60" height="30" as="geometry" />
        </mxCell>
        <mxCell id="IemWT1njiil_uN7K83db-4" value="&lt;h2&gt;&lt;br&gt;&lt;/h2&gt;" style="shape=singleArrow;direction=south;whiteSpace=wrap;html=1;arrowWidth=0.6;arrowSize=0.57;" vertex="1" parent="1">
          <mxGeometry x="530" y="190" width="60" height="110" as="geometry" />
        </mxCell>
        <mxCell id="IemWT1njiil_uN7K83db-5" value="&lt;pre&gt;&lt;font style=&quot;font-size: 18px;&quot; face=&quot;Helvetica&quot;&gt;速度&lt;/font&gt;&lt;/pre&gt;" style="text;strokeColor=none;align=center;fillColor=none;html=1;verticalAlign=middle;whiteSpace=wrap;rounded=0;rotation=-90;" vertex="1" parent="1">
          <mxGeometry x="530" y="230" width="60" height="30" as="geometry" />
        </mxCell>
        <mxCell id="IemWT1njiil_uN7K83db-7" value="" style="verticalLabelPosition=bottom;verticalAlign=top;html=1;shape=mxgraph.basic.patternFillRect;fillStyle=grid;step=5;fillStrokeWidth=0.2;fillStrokeColor=#dddddd;" vertex="1" parent="1">
          <mxGeometry x="242.5" y="320" width="385" height="60" as="geometry" />
        </mxCell>
        <mxCell id="IemWT1njiil_uN7K83db-14" value="" style="edgeStyle=orthogonalEdgeStyle;rounded=0;orthogonalLoop=1;jettySize=auto;html=1;exitX=0.5;exitY=1;exitDx=0;exitDy=0;exitPerimeter=0;" edge="1" parent="1" source="IemWT1njiil_uN7K83db-7" target="IemWT1njiil_uN7K83db-13">
          <mxGeometry relative="1" as="geometry">
            <mxPoint x="435" y="390" as="sourcePoint" />
          </mxGeometry>
        </mxCell>
        <mxCell id="IemWT1njiil_uN7K83db-8" value="&lt;pre&gt;&lt;font style=&quot;font-size: 24px;&quot; face=&quot;Helvetica&quot;&gt;交通拥挤指数&lt;/font&gt;&lt;/pre&gt;" style="text;strokeColor=none;align=center;fillColor=none;html=1;verticalAlign=middle;whiteSpace=wrap;rounded=0;rotation=0;" vertex="1" parent="1">
          <mxGeometry x="305" y="335" width="260" height="35" as="geometry" />
        </mxCell>
        <mxCell id="IemWT1njiil_uN7K83db-13" value="" style="verticalLabelPosition=bottom;verticalAlign=top;html=1;shape=hexagon;perimeter=hexagonPerimeter2;arcSize=6;size=0.1267605633802817;" vertex="1" parent="1">
          <mxGeometry x="257.5" y="444" width="355" height="60" as="geometry" />
        </mxCell>
        <mxCell id="IemWT1njiil_uN7K83db-22" value="" style="edgeStyle=orthogonalEdgeStyle;rounded=0;orthogonalLoop=1;jettySize=auto;html=1;entryX=0.5;entryY=0;entryDx=0;entryDy=0;exitX=0.5;exitY=1;exitDx=0;exitDy=0;" edge="1" parent="1" source="IemWT1njiil_uN7K83db-13" target="IemWT1njiil_uN7K83db-16">
          <mxGeometry relative="1" as="geometry">
            <mxPoint x="440" y="584" as="targetPoint" />
          </mxGeometry>
        </mxCell>
        <mxCell id="IemWT1njiil_uN7K83db-15" value="&lt;pre&gt;&lt;font style=&quot;font-size: 24px;&quot; face=&quot;Helvetica&quot;&gt;与特定阈值比较&lt;/font&gt;&lt;/pre&gt;" style="text;strokeColor=none;align=center;fillColor=none;html=1;verticalAlign=middle;whiteSpace=wrap;rounded=0;rotation=0;" vertex="1" parent="1">
          <mxGeometry x="305" y="456.5" width="260" height="35" as="geometry" />
        </mxCell>
        <mxCell id="IemWT1njiil_uN7K83db-24" value="" style="edgeStyle=orthogonalEdgeStyle;rounded=0;orthogonalLoop=1;jettySize=auto;html=1;" edge="1" parent="1" source="IemWT1njiil_uN7K83db-16">
          <mxGeometry relative="1" as="geometry">
            <mxPoint x="435.0000000000002" y="683.9999999999998" as="targetPoint" />
          </mxGeometry>
        </mxCell>
        <mxCell id="IemWT1njiil_uN7K83db-16" value="" style="verticalLabelPosition=bottom;verticalAlign=top;html=1;shape=process;whiteSpace=wrap;rounded=1;size=0.14;arcSize=6;" vertex="1" parent="1">
          <mxGeometry x="290" y="564" width="290" height="60" as="geometry" />
        </mxCell>
        <mxCell id="IemWT1njiil_uN7K83db-17" value="&lt;pre&gt;&lt;font style=&quot;font-size: 24px;&quot; face=&quot;Helvetica&quot;&gt;拥堵状态判别&lt;/font&gt;&lt;/pre&gt;" style="text;strokeColor=none;align=center;fillColor=none;html=1;verticalAlign=middle;whiteSpace=wrap;rounded=0;rotation=0;" vertex="1" parent="1">
          <mxGeometry x="305" y="576.5" width="260" height="35" as="geometry" />
        </mxCell>
        <mxCell id="IemWT1njiil_uN7K83db-25" value="" style="group" vertex="1" connectable="0" parent="1">
          <mxGeometry x="295" y="685" width="280" height="60" as="geometry" />
        </mxCell>
        <mxCell id="IemWT1njiil_uN7K83db-20" value="" style="strokeWidth=2;html=1;shape=mxgraph.flowchart.terminator;whiteSpace=wrap;" vertex="1" parent="IemWT1njiil_uN7K83db-25">
          <mxGeometry width="280" height="60" as="geometry" />
        </mxCell>
        <mxCell id="IemWT1njiil_uN7K83db-21" value="&lt;pre&gt;&lt;font style=&quot;font-size: 24px;&quot; face=&quot;Helvetica&quot;&gt;车道管控决策&lt;/font&gt;&lt;/pre&gt;" style="text;strokeColor=none;align=center;fillColor=none;html=1;verticalAlign=middle;whiteSpace=wrap;rounded=0;rotation=0;" vertex="1" parent="IemWT1njiil_uN7K83db-25">
          <mxGeometry x="10" y="11.5" width="260" height="35" as="geometry" />
        </mxCell>
      </root>
    </mxGraphModel>
  </diagram>
</mxfile>
